{
  "source": "C:\\Users\\mbnyau\\Desktop\\stuff\\MIUN\\quantitative_research\\video_compression\\videos\\UVG\\Jockey_1920x1080_120fps_420_8bit_YUV.y4m",
  "output": "C:\\Users\\mbnyau\\Desktop\\stuff\\MIUN\\quantitative_research\\video_compression\\compressed_videos\\UVG\\vp9\\3\\Jockey_1920x1080_120fps_420_8bit_YUV_vp9.webm",
  "codec": "vp9",
  "ok": "[yuv4mpegpipe @ 0000018d60b45700] Stream #0: not enough frames to estimate rate; consider increasing probesize\nInput #0, yuv4mpegpipe, from 'C:\\Users\\mbnyau\\Desktop\\stuff\\MIUN\\quantitative_research\\video_compression\\videos\\UVG\\Jockey_1920x1080_120fps_420_8bit_YUV.y4m':\n  Duration: 00:00:05.00, start: 0.000000, bitrate: 2985989 kb/s\n  Stream #0:0: Video: rawvideo (I420 / 0x30323449), yuv420p(progressive), 1920x1080, 120 fps, 120 tbr, 120 tbn\n[out#0/webm @ 0000018d60b46d80] Codec AVOption b:a (set bitrate (in bits/s)) has not been used for any stream. The most likely reason is either wrong type (e.g. a video option with no video streams) or that it is a private option of some decoder which was not actually used for any stream.\nStream mapping:\n  Stream #0:0 -> #0:0 (rawvideo (native) -> vp9 (libvpx-vp9))\nPress [q] to stop, [?] for help\n[libvpx-vp9 @ 0000018d60b4cc40] v1.15.2-100-g40561f514\nOutput #0, webm, to 'C:\\Users\\mbnyau\\Desktop\\stuff\\MIUN\\quantitative_research\\video_compression\\compressed_videos\\UVG\\vp9\\3\\Jockey_1920x1080_120fps_420_8bit_YUV_vp9.webm':\n  Metadata:\n    encoder         : Lavf62.3.100\n  Stream #0:0: Video: vp9, yuv420p(tv, progressive), 1920x1080, q=2-31, 3000 kb/s, 120 fps, 1k tbn\n    Metadata:\n      encoder         : Lavc62.11.100 libvpx-vp9\n    Side data:\n      cpb: bitrate max/min/avg: 0/0/0 buffer size: 3000000 vbv_delay: N/A\nframe=    9 fps=0.0 q=49.0 size=       0KiB time=00:00:00.07 bitrate=  51.3kbits/s speed=0.145x elapsed=0:00:00.51    \nframe=   20 fps= 19 q=45.0 size=       0KiB time=00:00:00.16 bitrate=  23.1kbits/s speed=0.162x elapsed=0:00:01.03    \nframe=   30 fps= 20 q=46.0 size=       0KiB time=00:00:00.25 bitrate=  15.4kbits/s speed=0.163x elapsed=0:00:01.53    \nframe=   41 fps= 20 q=46.0 size=       0KiB time=00:00:00.34 bitrate=  11.3kbits/s speed=0.167x elapsed=0:00:02.04    \nframe=   52 fps= 20 q=47.0 size=       0KiB time=00:00:00.43 bitrate=   8.9kbits/s speed=0.169x elapsed=0:00:02.56    \nframe=   61 fps= 20 q=47.0 size=       0KiB time=00:00:00.50 bitrate=   7.6kbits/s speed=0.165x elapsed=0:00:03.08    \nframe=   72 fps= 20 q=47.0 size=       0KiB time=00:00:00.60 bitrate=   6.4kbits/s speed=0.167x elapsed=0:00:03.59    \nframe=   81 fps= 20 q=36.0 size=       0KiB time=00:00:00.67 bitrate=   5.7kbits/s speed=0.164x elapsed=0:00:04.11    \nframe=   91 fps= 20 q=47.0 size=       0KiB time=00:00:00.75 bitrate=   5.1kbits/s speed=0.164x elapsed=0:00:04.62    \nframe=  101 fps= 20 q=48.0 size=       0KiB time=00:00:00.84 bitrate=   4.6kbits/s speed=0.164x elapsed=0:00:05.14    \nframe=  111 fps= 20 q=49.0 size=       0KiB time=00:00:00.92 bitrate=   4.2kbits/s speed=0.163x elapsed=0:00:05.66    \nframe=  121 fps= 20 q=49.0 size=       0KiB time=00:00:01.00 bitrate=   3.8kbits/s speed=0.163x elapsed=0:00:06.17    \nframe=  130 fps= 19 q=49.0 size=     256KiB time=00:00:01.08 bitrate=1935.8kbits/s speed=0.162x elapsed=0:00:06.69    \nframe=  141 fps= 20 q=49.0 size=     256KiB time=00:00:01.17 bitrate=1784.8kbits/s speed=0.163x elapsed=0:00:07.21    \nframe=  150 fps= 19 q=37.0 size=     256KiB time=00:00:01.25 bitrate=1677.7kbits/s speed=0.162x elapsed=0:00:07.72    \nframe=  159 fps= 19 q=50.0 size=     256KiB time=00:00:01.32 bitrate=1582.8kbits/s speed=0.161x elapsed=0:00:08.24    \nframe=  168 fps= 19 q=51.0 size=     256KiB time=00:00:01.40 bitrate=1498.0kbits/s speed=0.16x elapsed=0:00:08.76    \nframe=  177 fps= 19 q=50.0 size=     256KiB time=00:00:01.47 bitrate=1421.8kbits/s speed=0.159x elapsed=0:00:09.27    \nframe=  185 fps= 19 q=49.0 size=     256KiB time=00:00:01.54 bitrate=1360.3kbits/s speed=0.157x elapsed=0:00:09.79    \nframe=  195 fps= 19 q=50.0 size=     256KiB time=00:00:01.62 bitrate=1290.6kbits/s speed=0.158x elapsed=0:00:10.30    \nframe=  204 fps= 19 q=51.0 size=     256KiB time=00:00:01.70 bitrate=1233.6kbits/s speed=0.157x elapsed=0:00:10.82    \nframe=  213 fps= 19 q=52.0 size=     256KiB time=00:00:01.77 bitrate=1181.5kbits/s speed=0.157x elapsed=0:00:11.33    \nframe=  221 fps= 19 q=51.0 size=     256KiB time=00:00:01.84 bitrate=1138.7kbits/s speed=0.155x elapsed=0:00:11.84    \nframe=  231 fps= 19 q=52.0 size=     256KiB time=00:00:01.92 bitrate=1089.4kbits/s speed=0.156x elapsed=0:00:12.37    \nframe=  239 fps= 19 q=51.0 size=     256KiB time=00:00:01.99 bitrate=1053.0kbits/s speed=0.155x elapsed=0:00:12.88    \nframe=  248 fps= 19 q=52.0 size=     256KiB time=00:00:02.06 bitrate=1014.8kbits/s speed=0.154x elapsed=0:00:13.40    \nframe=  256 fps= 18 q=52.0 size=     256KiB time=00:00:02.13 bitrate= 983.0kbits/s speed=0.153x elapsed=0:00:13.91    \nframe=  266 fps= 18 q=51.0 size=     768KiB time=00:00:02.21 bitrate=2838.3kbits/s speed=0.154x elapsed=0:00:14.43    \nframe=  275 fps= 18 q=51.0 size=     768KiB time=00:00:02.29 bitrate=2745.4kbits/s speed=0.153x elapsed=0:00:14.95    \nframe=  284 fps= 18 q=53.0 size=     768KiB time=00:00:02.36 bitrate=2658.4kbits/s speed=0.153x elapsed=0:00:15.46    \nframe=  291 fps= 18 q=58.0 size=     768KiB time=00:00:02.42 bitrate=2594.4kbits/s speed=0.152x elapsed=0:00:15.98    \nframe=  299 fps= 18 q=44.0 size=     768KiB time=00:00:02.49 bitrate=2525.0kbits/s speed=0.151x elapsed=0:00:16.48    \nframe=  308 fps= 18 q=61.0 size=     768KiB time=00:00:02.56 bitrate=2451.2kbits/s speed=0.151x elapsed=0:00:17.00    \nframe=  317 fps= 18 q=60.0 size=     768KiB time=00:00:02.64 bitrate=2381.6kbits/s speed=0.151x elapsed=0:00:17.52    \nframe=  325 fps= 18 q=59.0 size=     768KiB time=00:00:02.70 bitrate=2323.0kbits/s speed=0.15x elapsed=0:00:18.03    \nframe=  333 fps= 18 q=56.0 size=     768KiB time=00:00:02.77 bitrate=2267.2kbits/s speed=0.15x elapsed=0:00:18.55    \nframe=  342 fps= 18 q=58.0 size=     768KiB time=00:00:02.85 bitrate=2207.5kbits/s speed=0.149x elapsed=0:00:19.07    \nframe=  353 fps= 18 q=58.0 size=     768KiB time=00:00:02.94 bitrate=2138.7kbits/s speed=0.15x elapsed=0:00:19.58    \nframe=  362 fps= 18 q=52.0 size=     768KiB time=00:00:03.01 bitrate=2085.6kbits/s speed=0.15x elapsed=0:00:20.10    \nframe=  371 fps= 18 q=29.0 size=     768KiB time=00:00:03.09 bitrate=2035.0kbits/s speed=0.15x elapsed=0:00:20.61    \nframe=  384 fps= 18 q=53.0 size=     768KiB time=00:00:03.20 bitrate=1966.1kbits/s speed=0.151x elapsed=0:00:21.13    \nframe=  395 fps= 18 q=48.0 size=    1024KiB time=00:00:03.29 bitrate=2548.4kbits/s speed=0.152x elapsed=0:00:21.65    \nframe=  405 fps= 18 q=50.0 size=    1024KiB time=00:00:03.37 bitrate=2485.5kbits/s speed=0.152x elapsed=0:00:22.16    \nframe=  417 fps= 18 q=43.0 size=    1024KiB time=00:00:03.47 bitrate=2414.0kbits/s speed=0.153x elapsed=0:00:22.68    \nframe=  428 fps= 18 q=42.0 size=    1024KiB time=00:00:03.56 bitrate=2351.9kbits/s speed=0.154x elapsed=0:00:23.20    \nframe=  437 fps= 18 q=43.0 size=    1024KiB time=00:00:03.64 bitrate=2303.5kbits/s speed=0.153x elapsed=0:00:23.73    \nframe=  447 fps= 18 q=46.0 size=    1024KiB time=00:00:03.72 bitrate=2252.0kbits/s speed=0.154x elapsed=0:00:24.26    \nframe=  456 fps= 18 q=46.0 size=    1024KiB time=00:00:03.80 bitrate=2207.5kbits/s speed=0.153x elapsed=0:00:24.77    \nframe=  468 fps= 19 q=43.0 size=    1024KiB time=00:00:03.90 bitrate=2150.9kbits/s speed=0.154x elapsed=0:00:25.29    \nframe=  477 fps= 18 q=40.0 size=    1024KiB time=00:00:03.97 bitrate=2110.3kbits/s speed=0.154x elapsed=0:00:25.81    \nframe=  486 fps= 18 q=42.0 size=    1024KiB time=00:00:04.05 bitrate=2071.3kbits/s speed=0.154x elapsed=0:00:26.32    \nframe=  499 fps= 19 q=47.0 size=    1024KiB time=00:00:04.15 bitrate=2017.3kbits/s speed=0.155x elapsed=0:00:26.84    \nframe=  507 fps= 19 q=33.0 size=    1024KiB time=00:00:04.22 bitrate=1985.5kbits/s speed=0.154x elapsed=0:00:27.35    \nframe=  519 fps= 19 q=45.0 size=    1280KiB time=00:00:04.32 bitrate=2424.5kbits/s speed=0.155x elapsed=0:00:27.87    \nframe=  527 fps= 19 q=32.0 size=    1280KiB time=00:00:04.39 bitrate=2387.6kbits/s speed=0.155x elapsed=0:00:28.37    \nframe=  538 fps= 19 q=43.0 size=    1280KiB time=00:00:04.48 bitrate=2338.8kbits/s speed=0.155x elapsed=0:00:28.90    \nframe=  547 fps= 19 q=44.0 size=    1280KiB time=00:00:04.55 bitrate=2300.3kbits/s speed=0.155x elapsed=0:00:29.42    \nframe=  556 fps= 19 q=45.0 size=    1280KiB time=00:00:04.63 bitrate=2263.1kbits/s speed=0.155x elapsed=0:00:29.94    \nframe=  566 fps= 19 q=46.0 size=    1280KiB time=00:00:04.71 bitrate=2223.1kbits/s speed=0.155x elapsed=0:00:30.45    \nframe=  575 fps= 19 q=46.0 size=    1280KiB time=00:00:04.79 bitrate=2188.3kbits/s speed=0.155x elapsed=0:00:30.97    \nframe=  576 fps= 18 q=34.0 size=    1280KiB time=00:00:04.80 bitrate=2184.5kbits/s speed=0.152x elapsed=0:00:31.49    \nframe=  576 fps= 18 q=34.0 size=    1280KiB time=00:00:04.80 bitrate=2184.5kbits/s speed=0.15x elapsed=0:00:32.01    \n[out#0/webm @ 0000018d60b46d80] video:1804KiB audio:0KiB subtitle:0KiB other streams:0KiB global headers:0KiB muxing overhead: 0.262113%\nframe=  600 fps= 19 q=49.0 Lsize=    1809KiB time=00:00:05.00 bitrate=2963.4kbits/s speed=0.154x elapsed=0:00:32.39    \n",
  "seconds": 32.46544122695923,
  "probe_out": {}
}